<?xml version="1.0" standalone="no"?>
<!DOCTYPE svg PUBLIC "-//W3C//DTD SVG 20010904//EN"
 "http://www.w3.org/TR/2001/REC-SVG-20010904/DTD/svg10.dtd">
<svg version="1.0" xmlns="http://www.w3.org/2000/svg"
 width="512.000000pt" height="512.000000pt" viewBox="0 0 512.000000 512.000000"
 preserveAspectRatio="xMidYMid meet">

<g transform="translate(0.000000,512.000000) scale(0.100000,-0.100000)"
fill="#000000" stroke="none">
<path d="M2508 4051 c-31 -10 -79 -35 -105 -54 -26 -20 -400 -388 -830 -819
-896 -897 -838 -828 -838 -1003 0 -94 2 -103 33 -161 46 -85 219 -254 294
-289 106 -48 238 -42 338 17 19 12 306 291 637 622 l603 601 612 -611 c579
-577 616 -613 673 -635 46 -18 80 -23 145 -23 123 0 174 26 307 157 138 136
168 192 168 322 0 164 67 86 -858 1012 -930 932 -861 873 -1032 880 -69 2
-103 -1 -147 -16z"/>
</g>
</svg>
