<?xml version="1.0" standalone="no"?>
<!DOCTYPE svg PUBLIC "-//W3C//DTD SVG 20010904//EN"
 "http://www.w3.org/TR/2001/REC-SVG-20010904/DTD/svg10.dtd">
<svg version="1.0" xmlns="http://www.w3.org/2000/svg"
 width="1280.000000pt" height="1280.000000pt" viewBox="0 0 1280.000000 1280.000000"
 preserveAspectRatio="xMidYMid meet">
<metadata>
Created by potrace 1.11, written by Peter Selinger 2001-2013
</metadata>
<g transform="translate(0.000000,1280.000000) scale(0.100000,-0.100000)"
fill="#000000" stroke="none">
<path d="M6310 12689 c-47 -60 -90 -115 -95 -122 -11 -13 -89 -121 -150 -207
-86 -121 -217 -324 -310 -480 -54 -91 -114 -192 -134 -225 -41 -69 -275 -533
-310 -615 -78 -182 -117 -278 -157 -382 -48 -124 -160 -456 -168 -498 -3 -14
-19 -77 -36 -140 -43 -158 -84 -355 -114 -545 -42 -268 -51 -390 -51 -680 1
-257 13 -341 81 -545 30 -88 143 -334 186 -405 114 -185 170 -271 323 -500
351 -521 508 -793 645 -1115 186 -439 315 -962 356 -1445 3 -44 8 -96 10 -115
1 -19 3 -64 3 -99 1 -35 4 -61 8 -57 7 7 7 8 17 167 3 58 11 143 17 190 5 46
12 100 14 119 12 92 17 131 30 200 8 41 16 89 19 105 21 135 88 390 155 593
112 337 256 642 452 964 86 140 260 410 270 418 3 3 76 111 161 240 297 450
400 668 459 971 18 93 22 150 23 309 1 342 -23 562 -110 995 -10 50 -13 65
-34 145 -12 47 -23 94 -25 104 -14 63 -121 413 -145 471 -5 11 -20 54 -35 95
-15 41 -33 89 -41 107 -8 17 -14 34 -14 37 0 7 -106 256 -148 346 -261 567
-619 1153 -985 1613 -42 53 -78 97 -80 97 -1 -1 -40 -50 -87 -111z"/>
<path d="M2927 7884 c-1 -1 -63 -4 -137 -7 -74 -4 -144 -8 -155 -10 -11 -3
-47 -8 -80 -12 -32 -4 -68 -9 -80 -11 -11 -2 -36 -7 -55 -10 -162 -26 -445
-118 -625 -204 -457 -217 -828 -572 -1023 -980 -27 -57 -52 -119 -49 -124 1
-1 -3 -9 -9 -17 -18 -22 -78 -218 -100 -324 -29 -138 -37 -231 -39 -425 -1
-118 2 -231 6 -250 4 -19 13 -73 19 -120 31 -234 138 -584 231 -756 122 -227
300 -450 540 -680 472 -449 1084 -717 1633 -715 163 1 238 9 429 47 158 31
334 104 472 194 69 46 210 175 255 235 109 144 168 280 216 500 10 48 13 305
4 360 -14 86 -27 150 -30 150 -1 0 -3 11 -6 24 -7 37 -73 200 -102 251 -180
313 -454 481 -782 479 -231 -2 -427 -78 -575 -224 -154 -151 -227 -335 -220
-560 9 -304 203 -569 483 -660 29 -10 52 -21 52 -25 0 -12 -135 -12 -186 1
-365 89 -616 634 -499 1084 33 126 63 192 138 305 121 183 355 356 579 430
196 63 459 77 698 35 183 -32 158 -26 325 -80 95 -31 294 -118 347 -151 21
-13 40 -24 42 -24 6 0 164 -99 186 -117 172 -136 259 -215 346 -318 62 -72
154 -201 154 -215 0 -6 3 -10 8 -10 4 0 12 -10 18 -23 6 -12 30 -59 52 -104
46 -91 91 -215 115 -313 18 -72 26 -115 42 -234 3 -22 7 -41 9 -43 2 -2 32 10
67 26 128 61 330 116 493 136 l58 8 -6 51 c-11 98 -63 363 -103 521 -14 55
-26 107 -28 115 -13 67 -113 383 -163 517 -89 237 -219 506 -350 723 -39 64
-157 242 -183 274 -163 208 -195 245 -324 377 -94 96 -131 130 -254 235 -20
17 -86 67 -148 112 -311 223 -614 364 -1013 472 -53 15 -227 47 -295 55 -33 4
-68 9 -77 11 -31 5 -316 21 -321 18z"/>
<path d="M9788 7885 c-2 -2 -55 -6 -118 -10 -63 -4 -117 -8 -120 -10 -3 -1
-36 -6 -75 -10 -38 -4 -72 -8 -75 -10 -3 -2 -26 -6 -50 -10 -72 -10 -246 -54
-365 -92 -556 -177 -1065 -535 -1449 -1018 -111 -140 -127 -162 -207 -285
-339 -519 -574 -1153 -699 -1883 -27 -163 -29 -153 33 -162 28 -5 55 -8 59 -7
4 1 48 -7 99 -18 106 -23 282 -81 352 -117 27 -13 51 -23 52 -21 4 4 11 41 20
111 5 42 15 96 29 163 2 12 20 69 40 127 61 183 156 354 285 512 102 125 180
198 371 348 17 13 125 82 182 116 198 117 516 231 718 257 25 4 65 10 89 14
88 16 330 10 446 -11 239 -43 453 -155 620 -324 162 -163 252 -343 281 -560
27 -207 -27 -483 -126 -638 -16 -26 -30 -50 -30 -53 0 -8 -69 -93 -105 -129
-98 -98 -211 -155 -326 -162 -42 -3 -89 -3 -105 1 -26 7 -22 9 40 31 225 79
417 287 461 502 3 15 9 42 13 58 3 17 6 80 5 140 -1 279 -140 512 -385 647
-165 91 -448 122 -638 70 -290 -80 -523 -316 -633 -642 -51 -151 -62 -223 -61
-405 0 -152 3 -181 27 -274 25 -93 89 -261 110 -286 4 -5 26 -39 49 -75 89
-141 271 -294 453 -380 64 -30 218 -85 270 -96 6 -1 44 -9 86 -18 41 -8 100
-18 130 -21 30 -3 72 -8 94 -11 48 -5 280 -6 315 0 14 2 48 7 75 10 77 10 118
16 145 22 14 3 38 8 53 11 48 8 247 68 322 98 202 79 445 216 628 354 403 304
744 720 872 1064 129 347 184 649 180 982 -3 256 -33 430 -111 657 -172 496
-556 915 -1069 1168 -230 114 -503 202 -732 236 -21 3 -65 9 -99 15 -34 5
-119 11 -190 15 -71 3 -153 7 -181 8 -29 2 -54 2 -55 1z"/>
<path d="M6390 4489 c0 -5 5 -7 10 -4 6 3 10 8 10 11 0 2 -4 4 -10 4 -5 0 -10
-5 -10 -11z"/>
<path d="M6317 4174 c-1 -1 -42 -4 -92 -8 -89 -6 -132 -11 -190 -22 -16 -3
-43 -8 -60 -10 -16 -3 -55 -12 -85 -19 -538 -137 -790 -447 -596 -735 84 -125
245 -232 461 -305 95 -32 85 -29 206 -54 148 -31 258 -42 423 -43 183 -1 365
18 501 52 22 6 49 13 60 15 64 15 192 63 270 102 112 56 167 96 241 176 330
356 -96 773 -861 843 -63 5 -273 12 -278 8z"/>
<path d="M5774 2677 c-1 -128 -18 -308 -39 -407 -2 -14 -14 -72 -26 -130 -11
-58 -22 -112 -24 -121 -26 -128 -82 -293 -127 -376 -105 -196 -274 -327 -483
-374 -74 -16 -231 -19 -307 -4 -38 7 -68 11 -68 9 0 -7 47 -47 117 -100 114
-86 276 -162 383 -179 19 -3 43 -8 54 -11 25 -8 150 -7 215 1 119 15 275 81
374 157 87 68 195 186 246 271 30 50 34 47 11 -9 -20 -47 -45 -127 -55 -179
-3 -16 -9 -43 -13 -60 -3 -16 -6 -100 -6 -185 1 -212 34 -360 131 -582 71
-164 227 -405 250 -386 26 21 138 195 188 291 55 107 107 235 125 308 30 118
40 169 47 229 11 91 7 272 -7 346 -7 35 -12 66 -12 68 0 5 -45 135 -63 181 -4
11 12 -9 36 -45 51 -76 195 -224 262 -269 289 -196 630 -190 945 16 55 36 175
134 170 139 -2 1 -34 -4 -72 -11 -67 -13 -203 -13 -276 -1 -136 23 -272 92
-364 184 -77 79 -114 128 -156 211 -30 61 -88 221 -97 271 -2 14 -15 70 -28
125 -13 55 -26 116 -29 135 -3 19 -8 46 -11 60 -7 36 -14 78 -20 130 -3 25 -7
54 -9 65 -9 46 -18 187 -17 281 l0 100 -102 -23 c-156 -34 -303 -48 -512 -47
-169 0 -360 10 -375 19 -3 1 -27 6 -55 9 -42 6 -127 25 -185 41 -13 4 -15 -17
-16 -148z"/>
</g>
</svg>
